<svg xmlns="http://www.w3.org/2000/svg" width="1024" height="1024" viewBox="0 0 1024 1024">
<g>
<path d="M 683.94 551.53 C675.21,553.81 664.32,554.64 653.50,553.83 C620.47,551.38 588.77,525.52 579.53,493.50 C574.22,475.10 576.26,452.53 584.78,435.50 C591.45,422.16 603.99,408.20 614.97,401.92 C618.53,399.88 620.95,397.81 620.97,396.80 C621.00,394.97 613.50,377.10 612.13,375.73 C611.67,375.27 609.81,376.61 607.99,378.70 C604.16,383.11 582.19,406.36 542.70,447.79 L 514.78 477.07 L 517.01 482.24 C518.79,486.39 519.10,488.46 518.59,492.81 C517.83,499.28 516.85,501.36 512.33,506.10 L 508.89 509.70 L 509.69 517.10 L 510.50 524.50 L 518.86 525.04 C525.52,525.48 527.51,525.97 528.61,527.48 C530.60,530.20 530.33,532.61 527.79,534.98 C525.70,536.93 524.58,537.03 507.15,536.77 L 488.71 536.50 L 486.63 533.70 C484.70,531.12 484.66,530.70 486.05,528.20 C487.35,525.88 488.31,525.46 492.78,525.20 L 498.00 524.90 L 498.00 518.45 C498.00,512.43 497.85,512.00 495.75,511.98 C492.28,511.94 484.86,508.23 481.21,504.71 C477.21,500.85 474.49,492.53 475.49,487.21 C476.48,481.90 479.51,476.52 483.09,473.72 L 486.24 471.26 L 483.52 463.88 C482.02,459.82 479.31,452.45 477.49,447.50 C475.68,442.55 471.74,432.20 468.74,424.50 C465.75,416.80 460.67,403.64 457.46,395.25 C454.25,386.86 451.33,380.00 450.97,380.00 C450.61,380.00 447.85,383.49 444.84,387.75 C441.83,392.01 431.47,406.52 421.83,420.00 C385.63,470.60 382.20,475.52 382.65,476.24 C382.90,476.65 402.95,476.73 427.19,476.42 L 471.26 475.84 L 464.32 488.50 L 417.41 488.76 C367.30,489.05 365.51,488.89 364.35,484.25 C363.59,481.23 364.69,479.26 375.45,464.36 C379.88,458.24 386.61,448.79 390.42,443.36 C394.23,437.94 408.29,418.13 421.67,399.35 C435.05,380.57 446.00,364.35 446.00,363.30 C446.00,362.26 445.61,360.97 445.14,360.45 C444.67,359.93 442.37,354.47 440.03,348.33 L 435.78 337.16 L 424.05 336.83 C412.49,336.50 412.24,336.45 406.91,332.90 C403.93,330.93 400.84,328.08 400.04,326.58 C398.75,324.17 398.76,323.52 400.07,321.17 C401.40,318.80 402.25,318.47 407.53,318.22 C418.25,317.72 471.92,322.72 474.59,324.47 C477.72,326.52 478.71,330.64 476.87,333.93 C475.45,336.46 475.24,336.50 462.12,336.78 C449.99,337.03 448.87,337.21 449.49,338.78 C449.87,339.73 451.33,343.65 452.75,347.50 C454.16,351.35 455.75,355.06 456.28,355.75 C457.04,356.73 473.10,357.00 530.62,357.00 C570.98,357.00 604.00,356.71 604.00,356.35 C604.00,355.99 601.04,348.27 597.42,339.19 L 590.84 322.69 L 592.78 320.09 L 594.71 317.50 L 620.59 317.23 C652.39,316.90 655.16,317.62 660.29,327.50 C664.79,336.15 661.60,347.99 653.41,353.05 C646.40,357.39 631.00,356.71 629.50,352.01 C628.84,349.92 630.83,345.05 632.41,344.89 C633.01,344.83 636.35,344.72 639.84,344.64 C645.45,344.52 646.45,344.18 648.59,341.69 C651.66,338.12 651.69,334.00 648.66,331.15 C646.40,329.02 645.73,328.97 626.31,329.23 L 606.29 329.50 L 620.67 363.50 C628.58,382.20 636.56,401.10 638.39,405.50 C640.23,409.90 646.79,425.42 652.97,440.00 C653.89,442.17 654.75,444.20 655.56,446.09 C665.56,469.65 667.04,473.13 665.90,475.12 C665.61,475.62 665.16,476.03 664.63,476.65 C662.81,478.76 661.80,479.17 659.68,478.64 C658.22,478.27 656.30,476.86 655.41,475.50 C654.52,474.15 648.26,459.78 641.49,443.57 C634.72,427.36 628.89,413.62 628.53,413.04 C627.83,411.92 624.34,414.24 615.16,421.93 C601.65,433.24 593.04,452.15 593.03,470.50 C593.03,481.39 596.49,495.66 600.40,500.85 C600.96,501.59 601.50,502.83 601.62,503.60 C601.89,505.46 611.00,516.77 615.17,520.41 C621.82,526.22 633.47,533.08 640.08,535.09 C653.59,539.20 670.00,539.19 683.12,535.07 C700.00,529.78 718.11,512.76 724.39,496.27 C737.28,462.45 723.48,426.67 691.53,411.07 C678.15,404.54 665.95,402.88 648.61,405.24 C647.13,405.45 646.10,403.95 643.77,398.18 C642.13,394.16 640.97,390.70 641.18,390.49 C642.10,389.57 655.18,388.02 662.00,388.02 C676.66,388.02 693.43,392.39 704.59,399.13 C713.37,404.43 725.98,416.39 731.68,424.81 C748.05,448.98 750.22,481.46 737.23,507.50 C726.80,528.39 705.67,545.85 683.94,551.53 ZM 499.75 468.75 C503.56,471.67 505.32,470.28 526.55,447.79 C568.73,403.07 579.71,391.39 589.69,380.55 L 599.87 369.50 L 530.78 369.24 C492.77,369.10 461.52,369.15 461.32,369.35 C460.96,369.70 472.45,400.83 477.99,414.50 C479.55,418.35 484.71,431.85 489.47,444.50 C494.23,457.15 498.86,468.06 499.75,468.75 ZM 415.12 620.50 L 412.50 638.50 L 402.83 638.79 C397.51,638.94 392.94,638.71 392.67,638.27 C392.24,637.58 402.21,563.25 403.54,557.25 C404.03,555.02 404.19,555.00 422.00,555.00 C439.80,555.00 439.97,555.02 440.49,557.25 C441.39,561.10 447.00,591.12 447.00,592.09 C447.00,595.36 449.51,591.17 454.98,578.75 C458.44,570.91 462.34,562.36 463.65,559.75 L 466.03 555.00 L 502.95 555.00 L 502.45 557.75 C502.17,559.26 499.72,576.70 496.99,596.50 C494.26,616.30 491.78,633.96 491.47,635.75 L 490.91 639.00 L 478.92 639.00 C468.81,639.00 466.84,638.75 466.32,637.39 C465.98,636.50 467.28,624.69 469.22,611.14 C471.16,597.59 472.52,586.28 472.24,586.00 C471.96,585.72 471.55,585.95 471.34,586.50 C471.14,587.05 465.67,598.97 459.20,613.00 L 447.43 638.50 L 440.06 638.80 C436.01,638.96 432.32,638.72 431.85,638.25 C431.39,637.79 428.93,625.96 426.38,611.96 C423.83,597.96 421.40,586.12 420.98,585.67 C420.57,585.21 419.67,588.81 418.98,593.67 C418.30,598.52 416.56,610.60 415.12,620.50 ZM 394.33 552.56 C377.45,555.79 357.03,553.66 342.73,547.18 C308.30,531.57 288.46,497.19 293.00,461.05 C297.61,424.40 326.43,394.92 363.49,388.94 C378.26,386.55 398.23,389.04 409.28,394.64 C414.02,397.05 414.12,397.18 412.57,399.31 C411.70,400.51 409.88,403.15 408.53,405.17 C405.16,410.21 404.64,410.38 399.49,408.10 C385.88,402.08 364.50,402.87 349.32,409.95 C323.61,421.94 308.97,444.38 309.01,471.70 C309.05,494.60 319.52,513.51 339.59,526.93 C361.49,541.58 388.82,542.32 411.74,528.88 C419.81,524.15 432.77,510.90 436.81,503.25 L 440.12 497.00 L 448.56 497.00 C453.20,497.00 457.00,497.30 457.00,497.68 C457.00,500.17 448.01,516.11 443.16,522.22 C430.21,538.51 413.50,548.90 394.33,552.56 ZM 719.58 630.60 L 718.49 638.50 L 708.49 638.75 C703.00,638.89 697.91,638.62 697.19,638.16 C696.14,637.47 697.01,629.37 701.72,596.40 L 707.56 555.50 L 718.78 555.22 C724.95,555.06 730.00,555.29 730.00,555.72 C730.00,556.15 728.65,566.18 727.00,578.00 C725.35,589.82 724.00,599.70 724.00,599.94 C724.00,600.19 728.88,595.57 734.85,589.69 L 745.70 579.00 L 755.79 579.00 C762.43,579.00 766.13,579.40 766.61,580.17 C767.05,580.89 765.05,583.30 761.42,586.42 C758.17,589.22 753.55,593.31 751.17,595.53 L 746.82 599.56 L 753.91 618.13 C757.81,628.34 761.00,637.22 761.00,637.85 C761.00,638.65 757.51,639.00 749.54,639.00 C748.58,639.00 747.71,639.01 746.90,639.01 C742.21,639.04 739.79,639.06 738.21,637.91 C736.25,636.48 735.61,633.25 733.55,626.00 C732.06,620.78 730.55,616.19 730.17,615.82 C729.80,615.44 727.51,616.83 725.09,618.91 C720.84,622.54 720.63,623.00 719.58,630.60 ZM 227.46 638.06 C226.76,639.19 203.33,639.33 202.63,638.21 C202.23,637.57 211.39,570.36 213.52,558.25 L 214.09 555.00 L 278.00 555.00 L 277.99 557.25 C277.98,562.08 275.82,572.49 274.69,573.21 C274.04,573.63 265.31,573.98 255.30,573.98 L 237.09 574.00 L 236.51 577.25 C236.20,579.04 235.84,582.30 235.72,584.50 L 235.50 588.50 L 260.01 589.06 L 259.44 592.78 C259.12,594.83 258.55,598.75 258.17,601.50 L 257.48 606.50 L 244.74 606.78 C235.54,606.98 232.00,607.40 231.98,608.28 C231.95,611.15 227.99,637.20 227.46,638.06 ZM 808.58 638.53 C803.17,640.14 790.32,640.35 785.36,638.91 C779.25,637.14 772.72,631.78 769.79,626.14 C766.20,619.23 765.91,608.98 769.07,600.54 C771.80,593.24 779.21,585.22 786.66,581.49 C791.86,578.88 793.54,578.56 802.00,578.53 C809.90,578.51 812.19,578.87 815.59,580.69 C824.70,585.56 829.29,594.20 828.80,605.53 L 828.50 612.50 L 789.50 613.50 L 789.20 617.14 C788.95,620.09 789.40,621.17 791.58,622.89 C795.74,626.16 802.62,625.78 807.84,622.00 C812.85,618.37 814.01,618.33 820.83,621.50 C824.66,623.28 826.06,624.46 825.82,625.70 C825.28,628.51 813.96,636.93 808.58,638.53 ZM 519.18 655.25 C513.56,657.73 501.15,658.71 498.83,656.84 C497.39,655.69 497.29,654.66 498.13,649.50 C498.67,646.20 499.42,643.21 499.80,642.85 C500.19,642.49 503.76,642.03 507.76,641.82 C513.29,641.53 515.48,640.97 516.97,639.47 C518.93,637.51 518.89,637.33 511.47,610.21 C507.36,595.20 504.00,582.03 504.00,580.93 C504.00,579.03 504.59,578.95 516.25,579.22 L 528.50 579.50 L 530.18 586.50 C531.11,590.35 532.61,596.99 533.53,601.25 C534.45,605.51 535.49,609.00 535.85,609.00 C536.21,609.00 539.88,602.36 544.00,594.25 L 551.50 579.50 L 559.87 579.21 C567.57,578.94 568.19,579.06 567.56,580.71 C566.36,583.85 538.83,633.24 534.51,640.00 C529.22,648.29 524.65,652.82 519.18,655.25 ZM 324.62 631.00 L 317.93 639.00 L 308.63 639.00 C303.52,639.00 299.03,638.70 298.66,638.33 C297.57,637.23 300.73,633.14 312.17,620.90 C318.12,614.51 323.00,608.70 323.00,607.97 C323.00,607.25 319.58,600.83 315.41,593.72 C310.75,585.78 308.18,580.42 308.74,579.86 C309.25,579.35 314.58,579.06 320.58,579.21 L 331.48 579.50 L 334.71 585.00 C336.49,588.03 338.30,591.12 338.75,591.87 C339.34,592.87 341.03,591.40 345.06,586.37 L 350.57 579.50 L 360.28 579.21 C368.28,578.98 370.00,579.19 370.00,580.39 C370.00,581.20 365.47,586.95 359.93,593.18 C354.39,599.40 349.64,605.01 349.37,605.63 C349.10,606.24 352.73,613.43 357.44,621.60 C362.15,629.77 366.00,637.02 366.00,637.73 C366.00,638.68 363.18,639.00 354.65,639.00 C354.22,639.00 353.79,639.00 353.38,639.00 C347.50,639.01 344.70,639.01 342.69,637.75 C340.72,636.52 339.50,634.08 336.88,629.26 C335.02,625.83 333.01,623.02 332.41,623.01 C331.81,623.01 328.31,626.60 324.62,631.00 ZM 692.62 609.50 L 688.50 638.50 L 678.40 638.78 C670.93,638.99 668.01,638.72 667.20,637.73 C666.38,636.75 667.11,629.16 670.04,608.45 C672.22,593.08 674.00,580.16 674.00,579.75 C674.00,579.34 678.92,579.00 684.94,579.00 C690.96,579.00 696.07,579.34 696.31,579.75 C696.55,580.16 694.88,593.55 692.62,609.50 ZM 294.55 637.92 C294.14,638.58 289.99,639.00 283.91,639.00 C275.41,639.00 273.84,638.75 273.28,637.29 C272.92,636.34 274.40,622.96 276.57,607.54 L 280.52 579.50 L 291.76 579.22 C300.39,579.00 303.00,579.23 302.99,580.22 C302.98,583.41 295.15,636.95 294.55,637.92 ZM 461.29 468.25 C461.06,468.66 457.31,469.00 452.94,469.00 L 445.00 469.00 L 445.00 465.21 C445.00,456.06 438.37,439.15 431.65,431.16 C429.64,428.77 428.00,426.32 428.00,425.73 C428.00,423.91 435.25,414.00 436.58,414.00 C440.20,414.00 452.03,431.47 456.53,443.46 C458.99,450.02 462.18,466.61 461.29,468.25 ZM 698.64 567.00 L 697.50 573.50 L 686.83 573.78 C680.96,573.94 675.91,573.67 675.61,573.18 C675.31,572.69 675.50,569.42 676.04,565.90 C676.95,559.92 677.08,557.19 678.50,555.96 C679.69,554.93 681.80,554.95 686.05,554.98 C686.94,554.99 687.93,555.00 689.02,555.00 L 700.00 555.00 L 699.89 557.75 C699.83,559.26 699.27,563.42 698.64,567.00 ZM 303.86 572.25 C303.07,573.74 301.44,574.00 293.02,574.00 C287.16,574.00 282.85,573.57 282.47,572.95 C281.70,571.71 282.87,560.51 284.10,557.25 C284.91,555.11 285.48,555.00 295.59,555.00 L 306.23 555.00 L 305.51 562.75 C305.12,567.01 304.37,571.29 303.86,572.25 ZM 493.86 497.48 C497.12,499.24 499.81,498.59 502.75,495.36 C505.40,492.45 505.53,490.93 503.48,486.96 C500.82,481.82 494.02,481.99 490.55,487.29 C488.50,490.42 490.14,495.47 493.86,497.48 ZM 792.00 600.02 C792.00,601.82 792.69,602.00 799.38,602.00 C807.57,602.00 809.66,600.77 808.61,596.58 C807.57,592.44 805.09,590.72 801.08,591.36 C797.06,592.00 792.00,596.82 792.00,600.02 Z" fill="rgb(19,27,36)"/>
<path d="M 638.00 637.93 C634.42,638.51 621.26,638.99 608.75,638.99 L 586.00 639.00 L 586.00 636.56 C586.00,634.19 588.08,618.66 593.97,577.12 C595.56,565.91 597.30,556.30 597.82,555.78 C598.40,555.20 608.62,554.96 623.64,555.17 C647.01,555.51 648.80,555.66 653.50,557.81 C665.59,563.35 669.80,573.46 664.42,584.10 C662.60,587.70 656.84,592.57 652.57,594.11 C650.60,594.82 649.00,595.65 649.00,595.95 C649.00,596.25 651.11,597.62 653.68,599.00 C660.13,602.45 662.28,605.72 662.80,612.88 C663.58,623.66 659.88,629.99 650.29,634.29 C647.11,635.71 641.58,637.35 638.00,637.93 ZM 614.44 614.86 L 613.72 622.22 L 621.95 621.85 C630.00,621.48 630.25,621.40 633.65,617.69 C637.90,613.05 638.05,608.32 634.00,606.29 C630.69,604.62 617.58,604.60 616.21,606.25 C615.64,606.94 614.84,610.81 614.44,614.86 ZM 619.30 581.00 L 618.71 588.00 L 625.71 588.00 C634.53,588.00 639.00,585.45 640.46,579.59 C641.31,576.17 641.16,575.55 639.10,573.88 C637.27,572.40 635.12,572.00 628.95,572.00 C624.64,572.00 620.84,572.45 620.50,573.00 C620.16,573.55 619.62,577.15 619.30,581.00 Z" fill="rgb(255,146,25)"/>
<path d="M 0.00 512.00 L 0.00 0.00 L 512.00 0.00 L 1024.00 0.00 L 1024.00 512.00 L 1024.00 1024.00 L 512.00 1024.00 L 0.00 1024.00 L 0.00 512.00 ZM 519.18 655.25 C524.65,652.82 529.22,648.29 534.51,640.00 C538.83,633.24 566.36,583.85 567.56,580.71 C568.19,579.06 567.57,578.94 559.87,579.21 L 551.50 579.50 L 544.00 594.25 C539.88,602.36 536.21,609.00 535.85,609.00 C535.49,609.00 534.45,605.51 533.53,601.25 C532.61,596.99 531.11,590.35 530.18,586.50 L 528.50 579.50 L 516.25 579.22 C504.59,578.95 504.00,579.03 504.00,580.93 C504.00,582.03 507.36,595.20 511.47,610.21 C518.89,637.33 518.93,637.51 516.97,639.47 C515.48,640.97 513.29,641.53 507.76,641.82 C503.76,642.03 500.19,642.49 499.80,642.85 C499.42,643.21 498.67,646.20 498.13,649.50 C497.29,654.66 497.39,655.69 498.83,656.84 C501.15,658.71 513.56,657.73 519.18,655.25 ZM 808.58 638.53 C813.96,636.93 825.28,628.51 825.82,625.70 C826.06,624.46 824.66,623.28 820.83,621.50 C814.01,618.33 812.85,618.37 807.84,622.00 C802.62,625.78 795.74,626.16 791.58,622.89 C789.40,621.17 788.95,620.09 789.20,617.14 L 789.50 613.50 L 809.00 613.00 L 828.50 612.50 L 828.80 605.53 C829.29,594.20 824.70,585.56 815.59,580.69 C812.19,578.87 809.90,578.51 802.00,578.53 C793.54,578.56 791.86,578.88 786.66,581.49 C779.21,585.22 771.80,593.24 769.07,600.54 C765.91,608.98 766.20,619.23 769.79,626.14 C772.72,631.78 779.25,637.14 785.36,638.91 C790.32,640.35 803.17,640.14 808.58,638.53 ZM 227.46 638.06 C227.99,637.20 231.95,611.15 231.98,608.28 C232.00,607.40 235.54,606.98 244.74,606.78 L 257.48 606.50 L 258.17 601.50 C258.55,598.75 259.12,594.83 259.44,592.78 L 260.01 589.06 L 247.76 588.78 L 235.50 588.50 L 235.72 584.50 C235.84,582.30 236.20,579.04 236.51,577.25 L 237.09 574.00 L 255.30 573.98 C265.31,573.98 274.04,573.63 274.69,573.21 C275.82,572.49 277.98,562.08 277.99,557.25 L 278.00 555.00 L 246.05 555.00 L 214.09 555.00 L 213.52 558.25 C211.39,570.36 202.23,637.57 202.63,638.21 C203.33,639.33 226.76,639.19 227.46,638.06 ZM 294.55 637.92 C295.15,636.95 302.98,583.41 302.99,580.22 C303.00,579.23 300.39,579.00 291.76,579.22 L 280.52 579.50 L 276.57 607.54 C274.40,622.96 272.92,636.34 273.28,637.29 C273.84,638.75 275.41,639.00 283.91,639.00 C289.99,639.00 294.14,638.58 294.55,637.92 ZM 324.62 631.00 C328.31,626.60 331.81,623.01 332.41,623.01 C333.01,623.02 335.02,625.83 336.88,629.26 C342.36,639.35 341.71,639.00 354.65,639.00 C363.18,639.00 366.00,638.68 366.00,637.73 C366.00,637.02 362.15,629.77 357.44,621.60 C352.73,613.43 349.10,606.24 349.37,605.63 C349.64,605.01 354.39,599.40 359.93,593.18 C365.47,586.95 370.00,581.20 370.00,580.39 C370.00,579.19 368.28,578.98 360.28,579.21 L 350.57 579.50 L 345.06 586.37 C341.03,591.40 339.34,592.87 338.75,591.87 C338.30,591.12 336.49,588.03 334.71,585.00 L 331.48 579.50 L 320.58 579.21 C314.58,579.06 309.25,579.35 308.74,579.86 C308.18,580.42 310.75,585.78 315.41,593.72 C319.58,600.83 323.00,607.25 323.00,607.97 C323.00,608.70 318.12,614.51 312.17,620.90 C300.73,633.14 297.57,637.23 298.66,638.33 C299.03,638.70 303.52,639.00 308.63,639.00 L 317.93 639.00 L 324.62 631.00 ZM 415.12 620.50 C416.56,610.60 418.30,598.52 418.98,593.67 C419.67,588.81 420.57,585.21 420.98,585.67 C421.40,586.12 423.83,597.96 426.38,611.96 C428.93,625.96 431.39,637.79 431.85,638.25 C432.32,638.72 436.01,638.96 440.06,638.80 L 447.43 638.50 L 459.20 613.00 C465.67,598.97 471.14,587.05 471.34,586.50 C471.55,585.95 471.96,585.72 472.24,586.00 C472.52,586.28 471.16,597.59 469.22,611.14 C467.28,624.69 465.98,636.50 466.32,637.39 C466.84,638.75 468.81,639.00 478.92,639.00 L 490.91 639.00 L 491.47 635.75 C491.78,633.96 494.26,616.30 496.99,596.50 C499.72,576.70 502.17,559.26 502.45,557.75 L 502.95 555.00 L 484.49 555.00 L 466.03 555.00 L 463.65 559.75 C462.34,562.36 458.44,570.91 454.98,578.75 C449.51,591.17 447.00,595.36 447.00,592.09 C447.00,591.12 441.39,561.10 440.49,557.25 C439.97,555.02 439.80,555.00 422.00,555.00 C404.19,555.00 404.03,555.02 403.54,557.25 C402.21,563.25 392.24,637.58 392.67,638.27 C392.94,638.71 397.51,638.94 402.83,638.79 L 412.50 638.50 L 415.12 620.50 ZM 638.00 637.93 C641.58,637.35 647.11,635.71 650.29,634.29 C659.88,629.99 663.58,623.66 662.80,612.88 C662.28,605.72 660.13,602.45 653.68,599.00 C651.11,597.62 649.00,596.25 649.00,595.95 C649.00,595.65 650.60,594.82 652.57,594.11 C656.84,592.57 662.60,587.70 664.42,584.10 C669.80,573.46 665.59,563.35 653.50,557.81 C648.80,555.66 647.01,555.51 623.64,555.17 C608.62,554.96 598.40,555.20 597.82,555.78 C597.30,556.30 595.56,565.91 593.97,577.12 C588.08,618.66 586.00,634.19 586.00,636.56 L 586.00 639.00 L 608.75 638.99 C621.26,638.99 634.42,638.51 638.00,637.93 ZM 692.62 609.50 C694.88,593.55 696.55,580.16 696.31,579.75 C696.07,579.34 690.96,579.00 684.94,579.00 C678.92,579.00 674.00,579.34 674.00,579.75 C674.00,580.16 672.22,593.08 670.04,608.45 C667.11,629.16 666.38,636.75 667.20,637.73 C668.01,638.72 670.93,638.99 678.40,638.78 L 688.50 638.50 L 692.62 609.50 ZM 719.58 630.60 C720.63,623.00 720.84,622.54 725.09,618.91 C727.51,616.83 729.80,615.44 730.17,615.82 C730.55,616.19 732.06,620.78 733.55,626.00 C737.55,640.08 736.22,639.00 749.54,639.00 C757.51,639.00 761.00,638.65 761.00,637.85 C761.00,637.22 757.81,628.34 753.91,618.13 L 746.82 599.56 L 751.17 595.53 C753.55,593.31 758.17,589.22 761.42,586.42 C765.05,583.30 767.05,580.89 766.61,580.17 C766.13,579.40 762.43,579.00 755.79,579.00 L 745.70 579.00 L 734.85 589.69 C728.88,595.57 724.00,600.19 724.00,599.94 C724.00,599.70 725.35,589.82 727.00,578.00 C728.65,566.18 730.00,556.15 730.00,555.72 C730.00,555.29 724.95,555.06 718.78,555.22 L 707.56 555.50 L 701.72 596.40 C697.01,629.37 696.14,637.47 697.19,638.16 C697.91,638.62 703.00,638.89 708.49,638.75 L 718.49 638.50 L 719.58 630.60 ZM 303.86 572.25 C304.37,571.29 305.12,567.01 305.51,562.75 L 306.23 555.00 L 295.59 555.00 C285.48,555.00 284.91,555.11 284.10,557.25 C282.87,560.51 281.70,571.71 282.47,572.95 C282.85,573.57 287.16,574.00 293.02,574.00 C301.44,574.00 303.07,573.74 303.86,572.25 ZM 698.64 567.00 C699.27,563.42 699.83,559.26 699.89,557.75 L 700.00 555.00 L 689.02 555.00 C676.52,555.00 677.88,553.86 676.04,565.90 C675.50,569.42 675.31,572.69 675.61,573.18 C675.91,573.67 680.96,573.94 686.83,573.78 L 697.50 573.50 L 698.64 567.00 ZM 683.94 551.53 C705.67,545.85 726.80,528.39 737.23,507.50 C750.22,481.46 748.05,448.98 731.68,424.81 C725.98,416.39 713.37,404.43 704.59,399.13 C693.43,392.39 676.66,388.02 662.00,388.02 C655.18,388.02 642.10,389.57 641.18,390.49 C640.97,390.70 642.13,394.16 643.77,398.18 C646.10,403.95 647.13,405.45 648.61,405.24 C665.95,402.88 678.15,404.54 691.53,411.07 C723.48,426.67 737.28,462.45 724.39,496.27 C718.11,512.76 700.00,529.78 683.12,535.07 C670.00,539.19 653.59,539.20 640.08,535.09 C633.47,533.08 621.82,526.22 615.17,520.41 C611.00,516.77 601.89,505.46 601.62,503.60 C601.50,502.83 600.96,501.59 600.40,500.85 C596.49,495.66 593.03,481.39 593.03,470.50 C593.04,452.15 601.65,433.24 615.16,421.93 C624.34,414.24 627.83,411.92 628.53,413.04 C628.89,413.62 634.72,427.36 641.49,443.57 C648.26,459.78 654.52,474.15 655.41,475.50 C656.30,476.86 658.22,478.27 659.68,478.64 C661.80,479.17 662.81,478.76 664.63,476.65 C667.41,473.41 668.21,475.92 652.97,440.00 C646.79,425.42 640.23,409.90 638.39,405.50 C636.56,401.10 628.58,382.20 620.67,363.50 L 606.29 329.50 L 626.31 329.23 C645.73,328.97 646.40,329.02 648.66,331.15 C651.69,334.00 651.66,338.12 648.59,341.69 C646.45,344.18 645.45,344.52 639.84,344.64 C636.35,344.72 633.01,344.83 632.41,344.89 C630.83,345.05 628.84,349.92 629.50,352.01 C631.00,356.71 646.40,357.39 653.41,353.05 C661.60,347.99 664.79,336.15 660.29,327.50 C655.16,317.62 652.39,316.90 620.59,317.23 L 594.71 317.50 L 592.78 320.09 L 590.84 322.69 L 597.42 339.19 C601.04,348.27 604.00,355.99 604.00,356.35 C604.00,356.71 570.98,357.00 530.62,357.00 C473.10,357.00 457.04,356.73 456.28,355.75 C455.75,355.06 454.16,351.35 452.75,347.50 C451.33,343.65 449.87,339.73 449.49,338.78 C448.87,337.21 449.99,337.03 462.12,336.78 C475.24,336.50 475.45,336.46 476.87,333.93 C478.71,330.64 477.72,326.52 474.59,324.47 C471.92,322.72 418.25,317.72 407.53,318.22 C402.25,318.47 401.40,318.80 400.07,321.17 C398.76,323.52 398.75,324.17 400.04,326.58 C400.84,328.08 403.93,330.93 406.91,332.90 C412.24,336.45 412.49,336.50 424.05,336.83 L 435.78 337.16 L 440.03 348.33 C442.37,354.47 444.67,359.93 445.14,360.45 C445.61,360.97 446.00,362.26 446.00,363.30 C446.00,364.35 435.05,380.57 421.67,399.35 C408.29,418.13 394.23,437.94 390.42,443.36 C386.61,448.79 379.88,458.24 375.45,464.36 C364.69,479.26 363.59,481.23 364.35,484.25 C365.51,488.89 367.30,489.05 417.41,488.76 L 464.32 488.50 L 467.79 482.17 L 471.26 475.84 L 427.19 476.42 C402.95,476.73 382.90,476.65 382.65,476.24 C382.20,475.52 385.63,470.60 421.83,420.00 C431.47,406.52 441.83,392.01 444.84,387.75 C447.85,383.49 450.61,380.00 450.97,380.00 C451.33,380.00 454.25,386.86 457.46,395.25 C460.67,403.64 465.75,416.80 468.74,424.50 C471.74,432.20 475.68,442.55 477.49,447.50 C479.31,452.45 482.02,459.82 483.52,463.88 L 486.24 471.26 L 483.09 473.72 C479.51,476.52 476.48,481.90 475.49,487.21 C474.49,492.53 477.21,500.85 481.21,504.71 C484.86,508.23 492.28,511.94 495.75,511.98 C497.85,512.00 498.00,512.43 498.00,518.45 L 498.00 524.90 L 492.78 525.20 C488.31,525.46 487.35,525.88 486.05,528.20 C484.66,530.70 484.70,531.12 486.63,533.70 L 488.71 536.50 L 507.15 536.77 C524.58,537.03 525.70,536.93 527.79,534.98 C530.33,532.61 530.60,530.20 528.61,527.48 C527.51,525.97 525.52,525.48 518.86,525.04 L 510.50 524.50 L 509.69 517.10 L 508.89 509.70 L 512.33 506.10 C516.85,501.36 517.83,499.28 518.59,492.81 C519.10,488.46 518.79,486.39 517.01,482.24 L 514.78 477.07 L 542.70 447.79 C582.19,406.36 604.16,383.11 607.99,378.70 C609.81,376.61 611.67,375.27 612.13,375.73 C613.50,377.10 621.00,394.97 620.97,396.80 C620.95,397.81 618.53,399.88 614.97,401.92 C603.99,408.20 591.45,422.16 584.78,435.50 C576.26,452.53 574.22,475.10 579.53,493.50 C588.77,525.52 620.47,551.38 653.50,553.83 C664.32,554.64 675.21,553.81 683.94,551.53 ZM 394.33 552.56 C413.50,548.90 430.21,538.51 443.16,522.22 C448.01,516.11 457.00,500.17 457.00,497.68 C457.00,497.30 453.20,497.00 448.56,497.00 L 440.12 497.00 L 436.81 503.25 C432.77,510.90 419.81,524.15 411.74,528.88 C388.82,542.32 361.49,541.58 339.59,526.93 C319.52,513.51 309.05,494.60 309.01,471.70 C308.97,444.38 323.61,421.94 349.32,409.95 C364.50,402.87 385.88,402.08 399.49,408.10 C404.64,410.38 405.16,410.21 408.53,405.17 C409.88,403.15 411.70,400.51 412.57,399.31 C414.12,397.18 414.02,397.05 409.28,394.64 C398.23,389.04 378.26,386.55 363.49,388.94 C326.43,394.92 297.61,424.40 293.00,461.05 C288.46,497.19 308.30,531.57 342.73,547.18 C357.03,553.66 377.45,555.79 394.33,552.56 ZM 461.29 468.25 C462.18,466.61 458.99,450.02 456.53,443.46 C452.03,431.47 440.20,414.00 436.58,414.00 C435.25,414.00 428.00,423.91 428.00,425.73 C428.00,426.32 429.64,428.77 431.65,431.16 C438.37,439.15 445.00,456.06 445.00,465.21 L 445.00 469.00 L 452.94 469.00 C457.31,469.00 461.06,468.66 461.29,468.25 ZM 792.00 600.02 C792.00,596.82 797.06,592.00 801.08,591.36 C805.09,590.72 807.57,592.44 808.61,596.58 C809.66,600.77 807.57,602.00 799.38,602.00 C792.69,602.00 792.00,601.82 792.00,600.02 ZM 614.44 614.86 C614.84,610.81 615.64,606.94 616.21,606.25 C617.58,604.60 630.69,604.62 634.00,606.29 C638.05,608.32 637.90,613.05 633.65,617.69 C630.25,621.40 630.00,621.48 621.95,621.85 L 613.72 622.22 L 614.44 614.86 ZM 619.30 581.00 C619.62,577.15 620.16,573.55 620.50,573.00 C620.84,572.45 624.64,572.00 628.95,572.00 C635.12,572.00 637.27,572.40 639.10,573.88 C641.16,575.55 641.31,576.17 640.46,579.59 C639.00,585.45 634.53,588.00 625.71,588.00 L 618.71 588.00 L 619.30 581.00 ZM 493.86 497.48 C490.14,495.47 488.50,490.42 490.55,487.29 C494.02,481.99 500.82,481.82 503.48,486.96 C505.53,490.93 505.40,492.45 502.75,495.36 C499.81,498.59 497.12,499.24 493.86,497.48 ZM 499.75 468.75 C498.86,468.06 494.23,457.15 489.47,444.50 C484.71,431.85 479.55,418.35 477.99,414.50 C472.45,400.83 460.96,369.70 461.32,369.35 C461.52,369.15 492.77,369.10 530.78,369.24 L 599.87 369.50 L 589.69 380.55 C579.71,391.39 568.73,403.07 526.55,447.79 C505.32,470.28 503.56,471.67 499.75,468.75 Z" fill="rgb(254,254,254)"/>
</g>
</svg>